<svg width="96" height="42" viewBox="0 0 96 42" fill="none" xmlns="http://www.w3.org/2000/svg">
<g clip-path="url(#clip0)">
<path d="M66.9288 4.5324C66.8449 4.04138 66.6848 3.5671 66.4547 3.12736C66.2193 2.68989 65.9251 2.28815 65.5805 1.93384C64.8965 1.24473 64.0645 0.72748 63.1505 0.423046C62.2677 0.143194 61.3486 0.000585094 60.4241 2.41608e-05C58.6342 -0.03238 56.8486 0.191383 55.1196 0.664772C54.2625 0.870562 53.4167 1.12272 52.5859 1.42017C51.7561 1.70722 50.9412 2.03959 50.1411 2.40218C48.7423 3.0132 47.4029 3.75675 46.1404 4.62305C44.9995 4.1547 43.8438 3.71657 42.6732 3.32377C40.997 2.74706 39.2841 2.28771 37.5465 1.94895C36.6519 1.77994 35.7448 1.68896 34.835 1.677C33.8788 1.67273 32.9281 1.82577 32.0197 2.13024C31.0584 2.48146 30.2258 3.12475 29.6342 3.97341C29.3065 4.45488 29.1166 5.01984 29.086 5.60506C29.0636 6.19712 29.2186 6.78208 29.5305 7.28204C29.8293 7.7407 30.2177 8.13158 30.6714 8.43024C31.0945 8.6918 31.5473 8.89981 32.0197 9.04967C32.9146 9.31583 33.8437 9.44316 34.7757 9.42736C35.66 9.40131 36.5392 9.27977 37.3983 9.06477C38.2837 8.88777 39.1553 8.6454 40.0062 8.33959C40.8269 8.0264 41.6285 7.66316 42.4065 7.25182C43.1883 6.85105 43.9454 6.40201 44.6735 5.90722L44.5995 5.77125C43.8142 6.14895 43.014 6.49643 42.2139 6.79859C41.4138 7.10074 40.584 7.35758 39.7691 7.5842C38.1513 8.05478 36.4721 8.2688 34.7905 8.21873C33.9924 8.18765 33.2032 8.03487 32.4494 7.76549C31.768 7.55323 31.1776 7.11105 30.7751 6.51154C30.6329 6.25319 30.5683 5.95791 30.5894 5.66243C30.6104 5.36695 30.7163 5.08431 30.8936 4.84966C31.3309 4.28929 31.9253 3.8782 32.5976 3.67125C33.3393 3.42619 34.1146 3.30378 34.8943 3.30866C35.2987 3.27892 35.7048 3.27892 36.1093 3.30866L37.3391 3.45974C39.0109 3.74853 40.6637 4.14209 42.288 4.63815C43.9327 5.13671 45.5626 5.71082 47.1776 6.31513C48.7927 6.91945 50.3781 7.55398 51.9487 8.27916L53.1341 8.79283C53.549 8.98923 53.949 9.14031 54.3639 9.29139C55.1877 9.60351 56.0288 9.86583 56.8828 10.077C58.5826 10.5905 60.3645 10.7599 62.1281 10.5756C63.0267 10.4431 63.8834 10.102 64.6322 9.57844C65.0049 9.31599 65.3435 9.00632 65.6397 8.65686C65.9524 8.30965 66.2212 7.92392 66.4399 7.50866C66.9315 6.60265 67.104 5.55231 66.9288 4.5324ZM65.8027 7.05542C65.4771 7.82582 64.9678 8.50097 64.321 9.01945C63.652 9.51899 62.8741 9.8456 62.054 9.97125C61.2136 10.0921 60.3607 10.0921 59.5203 9.97125C58.6722 9.8689 57.8344 9.69198 57.0162 9.44247C56.2009 9.19558 55.3995 8.90305 54.6158 8.56621C54.2306 8.38492 53.8305 8.20362 53.4749 8.00722L52.3043 7.55398C50.3781 6.49643 48.4667 5.57484 46.4812 4.75902C47.751 4.15414 49.0519 3.61955 50.3781 3.15758C51.1931 2.88564 52.008 2.6288 52.8378 2.40218C53.6675 2.17556 54.4825 1.97916 55.327 1.81297C56.1716 1.64679 57.031 1.51082 57.8756 1.51082C58.704 1.44289 59.5364 1.44289 60.3649 1.51082C60.5723 1.51082 60.7649 1.51082 60.9724 1.51082H61.5799C61.9717 1.5693 62.3582 1.66025 62.7356 1.78276C63.1012 1.91408 63.4576 2.07055 63.8024 2.2511C64.1441 2.43209 64.4626 2.65535 64.7507 2.91585C65.3366 3.4155 65.7602 4.08447 65.9657 4.83456C66.17 5.60162 66.1125 6.4167 65.8027 7.14607" fill="white"/>
<path d="M3.97098 20.8338H0V41.9849H3.97098V20.8338Z" fill="white"/>
<path d="M26.7152 42L13.0538 29.4V42H9.08286V20.8338H9.51255L23.1591 33.6302V20.8338H27.1301V42H26.7152Z" fill="white"/>
<path d="M49.7262 20.8338L39.858 42H39.6209L29.7824 20.8338H34.1534L39.7395 33.1165L45.3255 20.8338H49.7262Z" fill="white"/>
<path d="M56.6903 20.8338H52.7193V41.9849H56.6903V20.8338Z" fill="white"/>
<path d="M75.5672 24.3993H69.6256V42.0001H65.6546V24.3993H59.6981V20.8188H75.5672V24.3993Z" fill="white"/>
<path d="M96 20.8338L94.1775 23.8554L92.0586 27.3302L89.925 30.8352C89.2286 31.9834 88.6062 33.0259 88.0876 33.9475V42H84.1018V33.9777C82.877 31.782 81.5731 29.5914 80.1901 27.4057C78.8072 25.2201 77.4934 23.0295 76.2488 20.8338H80.8717C81.7311 22.3446 82.5905 23.8554 83.4795 25.3662C84.3685 26.877 85.2428 28.3878 86.1021 29.8986C86.517 29.2338 86.9467 28.5086 87.4061 27.7381L88.7692 25.3964L90.1176 23.0849L91.377 20.9244L96 20.8338Z" fill="white"/>
</g>
<defs>
<clipPath id="clip0">
<rect width="96" height="42" fill="white"/>
</clipPath>
</defs>
</svg>
