<svg width="16" height="16" viewBox="0 0 16 16" fill="none" xmlns="http://www.w3.org/2000/svg">
<path d="M15.9025 15.4308L11.0345 10.5628C12.0452 9.44011 12.6665 7.96011 12.6665 6.33342C12.6665 2.84141 9.82519 6.10352e-05 6.33321 6.10352e-05C2.84123 6.10352e-05 -6.10352e-05 2.84141 -6.10352e-05 6.33342C-6.10352e-05 9.82542 2.84127 12.6668 6.33324 12.6668C7.95989 12.6668 9.43988 12.0454 10.5626 11.0341L15.4305 15.9021C15.4959 15.9675 15.5812 16.0001 15.6665 16.0001C15.7519 16.0001 15.8372 15.9675 15.9025 15.9028C16.0325 15.7721 16.0325 15.5614 15.9025 15.4308ZM6.33324 12.0001C3.20861 12.0001 0.666622 9.45811 0.666622 6.33345C0.666622 3.20879 3.20858 0.66675 6.33324 0.66675C9.45791 0.66675 11.9999 3.20876 11.9999 6.33342C11.9999 9.45808 9.45788 12.0001 6.33324 12.0001Z" fill="#CDE3DE"/>
</svg>
