<svg width="16" height="16" viewBox="0 0 16 16" fill="none" xmlns="http://www.w3.org/2000/svg">
<path d="M15.9026 15.4308L11.0346 10.5628C12.0452 9.44011 12.6666 7.96011 12.6666 6.33342C12.6666 2.84141 9.82525 6.10352e-05 6.33327 6.10352e-05C2.84129 6.10352e-05 0 2.84141 0 6.33342C0 9.82542 2.84133 12.6668 6.3333 12.6668C7.95995 12.6668 9.43994 12.0454 10.5626 11.0341L15.4306 15.9021C15.4959 15.9675 15.5812 16.0001 15.6666 16.0001C15.7519 16.0001 15.8372 15.9675 15.9026 15.9028C16.0326 15.7721 16.0326 15.5614 15.9026 15.4308ZM6.3333 12.0001C3.20867 12.0001 0.666683 9.45811 0.666683 6.33345C0.666683 3.20879 3.20864 0.66675 6.3333 0.66675C9.45797 0.66675 11.9999 3.20876 11.9999 6.33342C11.9999 9.45808 9.45794 12.0001 6.3333 12.0001Z" fill="#5E7361"/>
</svg>
