<svg width="11" height="11" viewBox="0 0 11 11" fill="none" xmlns="http://www.w3.org/2000/svg">
<g clip-path="url(#clip0)">
<path d="M10.7612 5.00683C10.9777 4.79581 11.0541 4.48612 10.9607 4.19824C10.8671 3.91035 10.6233 3.70484 10.3237 3.66123L7.66028 3.27423C7.54685 3.25771 7.44883 3.18656 7.39817 3.0837L6.20742 0.670483C6.07372 0.399337 5.80235 0.230835 5.49993 0.230835C5.19773 0.230835 4.92636 0.399337 4.79266 0.670483L3.60169 3.08392C3.55103 3.18678 3.45279 3.25793 3.33936 3.27445L0.675922 3.66145C0.376582 3.70484 0.13253 3.91057 0.0389172 4.19846C-0.0544749 4.48634 0.0219568 4.79603 0.238477 5.00705L2.16557 6.88546C2.24773 6.96564 2.28539 7.08106 2.26601 7.19383L1.81138 9.84625C1.77108 10.0797 1.83231 10.3068 1.98341 10.4859C2.21821 10.765 2.62812 10.85 2.95588 10.6778L5.33782 9.42533C5.43738 9.37313 5.56271 9.37357 5.66205 9.42533L8.0442 10.6778C8.16006 10.7388 8.28363 10.7696 8.41116 10.7696C8.64398 10.7696 8.86469 10.6661 9.01645 10.4859C9.16777 10.3068 9.22879 10.0793 9.18848 9.84625L8.73363 7.19383C8.71425 7.08083 8.75191 6.96564 8.83407 6.88546L10.7612 5.00683Z" fill="url(#paint0_linear)"/>
</g>
<defs>
<linearGradient id="paint0_linear" x1="2.99988" y1="0.000244205" x2="8.99988" y2="11.0002" gradientUnits="userSpaceOnUse">
<stop stop-color="#153E35"/>
<stop offset="1" stop-color="#48746A"/>
</linearGradient>
<clipPath id="clip0">
<rect width="11" height="11" fill="white" transform="translate(0 0.000213623)"/>
</clipPath>
</defs>
</svg>
