<svg width="11" height="11" viewBox="0 0 11 11" fill="none" xmlns="http://www.w3.org/2000/svg">
<g clip-path="url(#clip0)">
<path d="M10.7612 5.00661C10.9777 4.7956 11.0541 4.48591 10.9607 4.19802C10.8671 3.91014 10.6233 3.70463 10.3237 3.66102L7.66028 3.27401C7.54685 3.25749 7.44883 3.18635 7.39817 3.08348L6.20742 0.670269C6.07372 0.399124 5.80235 0.230621 5.49993 0.230621C5.19773 0.230621 4.92636 0.399124 4.79266 0.670269L3.60169 3.0837C3.55103 3.18657 3.45279 3.25771 3.33936 3.27423L0.675922 3.66124C0.376582 3.70463 0.13253 3.91036 0.0389172 4.19824C-0.0544749 4.48613 0.0219568 4.79582 0.238477 5.00683L2.16557 6.88525C2.24773 6.96542 2.28539 7.08084 2.26601 7.19362L1.81138 9.84604C1.77108 10.0795 1.83231 10.3066 1.98341 10.4857C2.21821 10.7648 2.62812 10.8498 2.95588 10.6775L5.33782 9.42511C5.43738 9.37291 5.56271 9.37335 5.66205 9.42511L8.0442 10.6775C8.16006 10.7386 8.28363 10.7694 8.41116 10.7694C8.64398 10.7694 8.86469 10.6659 9.01645 10.4857C9.16777 10.3066 9.22879 10.0791 9.18848 9.84604L8.73363 7.19362C8.71425 7.08062 8.75191 6.96542 8.83407 6.88525L10.7612 5.00661Z" fill="#9CC8BD"/>
<path d="M10.0314 5.07505C10.2179 4.8933 10.2837 4.62657 10.2033 4.37861C10.1227 4.13066 9.91267 3.95366 9.65466 3.9161L7.36066 3.58277C7.26295 3.56854 7.17853 3.50727 7.1349 3.41867L6.10931 1.34018C5.99416 1.10665 5.76043 0.961517 5.49996 0.961517C5.23967 0.961517 5.00595 1.10665 4.89079 1.34018L3.86502 3.41886C3.82139 3.50746 3.73677 3.56873 3.63907 3.58296L1.34507 3.91628C1.08725 3.95366 0.877052 4.13085 0.796425 4.3788C0.715987 4.62676 0.781817 4.89349 0.968304 5.07524L2.6281 6.6931C2.69886 6.76216 2.7313 6.86157 2.7146 6.9587L2.32304 9.24321C2.28832 9.44431 2.34106 9.6399 2.4712 9.79414C2.67344 10.0345 3.02649 10.1077 3.30878 9.95938L5.36033 8.88067C5.44608 8.83571 5.55403 8.83609 5.63959 8.88067L7.69133 9.95938C7.79111 10.0119 7.89754 10.0385 8.00739 10.0385C8.20791 10.0385 8.398 9.94932 8.52871 9.79414C8.65905 9.6399 8.7116 9.44393 8.67688 9.24321L8.28512 6.9587C8.26843 6.86138 8.30087 6.76216 8.37163 6.6931L10.0314 5.07505Z" fill="#CAE1DC"/>
<g clip-path="url(#clip1)">
<path d="M10.7612 5.00661C10.9777 4.7956 11.0541 4.48591 10.9607 4.19802C10.8671 3.91014 10.6233 3.70463 10.3237 3.66102L7.66028 3.27401C7.54685 3.25749 7.44883 3.18635 7.39817 3.08348L6.20742 0.670269C6.07372 0.399124 5.80235 0.230621 5.49993 0.230621C5.19773 0.230621 4.92636 0.399124 4.79266 0.670269L3.60169 3.0837C3.55103 3.18657 3.45279 3.25771 3.33936 3.27423L0.675922 3.66124C0.376582 3.70463 0.13253 3.91036 0.0389172 4.19824C-0.0544749 4.48613 0.0219568 4.79582 0.238477 5.00683L2.16557 6.88525C2.24773 6.96542 2.28539 7.08084 2.26601 7.19362L1.81138 9.84604C1.77108 10.0795 1.83231 10.3066 1.98341 10.4857C2.21821 10.7648 2.62812 10.8498 2.95588 10.6775L5.33782 9.42511C5.43738 9.37291 5.56271 9.37335 5.66205 9.42511L8.0442 10.6775C8.16006 10.7386 8.28363 10.7694 8.41116 10.7694C8.64398 10.7694 8.86469 10.6659 9.01645 10.4857C9.16777 10.3066 9.22879 10.0791 9.18848 9.84604L8.73363 7.19362C8.71425 7.08062 8.75191 6.96542 8.83407 6.88525L10.7612 5.00661Z" fill="url(#paint0_linear)"/>
</g>
</g>
<defs>
<linearGradient id="paint0_linear" x1="2.99988" y1="3.06216e-05" x2="8.99988" y2="11" gradientUnits="userSpaceOnUse">
<stop stop-color="#153E35"/>
<stop offset="1" stop-color="#48746A"/>
</linearGradient>
<clipPath id="clip0">
<rect width="11" height="11" fill="white"/>
</clipPath>
<clipPath id="clip1">
<rect width="5.5" height="11" fill="white"/>
</clipPath>
</defs>
</svg>
