<svg width="11" height="11" viewBox="0 0 11 11" fill="none" xmlns="http://www.w3.org/2000/svg">
<g clip-path="url(#clip0)">
<path d="M10.6565 4.8992L10.6565 4.89919C10.832 4.72809 10.8938 4.47805 10.8181 4.24441L10.6565 4.8992ZM10.6565 4.8992L8.72936 6.77784L8.72931 6.77789C8.61205 6.89232 8.55802 7.05705 8.58579 7.21897C8.58579 7.21897 8.58579 7.21897 8.58579 7.21898L9.04064 9.87139L9.04067 9.8716C9.07352 10.0615 9.0242 10.2441 8.90188 10.3889L8.90173 10.3891C8.77804 10.5359 8.59909 10.6194 8.41116 10.6194C8.30855 10.6194 8.20891 10.5947 8.1141 10.5448L8.11401 10.5448L5.73185 9.29235L5.73136 9.29209C5.58892 9.21787 5.41167 9.21702 5.26816 9.29227L5.26801 9.29235L2.8861 10.5448C2.88609 10.5448 2.88608 10.5448 2.88607 10.5448C2.6216 10.6837 2.28826 10.615 2.09819 10.3891L2.09805 10.389C1.97581 10.2441 1.92635 10.0618 1.9592 9.87156L1.95923 9.87138L2.41384 7.21903C2.41385 7.219 2.41385 7.21898 2.41385 7.21896C2.44162 7.05726 2.38758 6.89232 2.27033 6.77789L2.27027 6.77783L0.343177 4.89942L0.343168 4.89941M10.6565 4.8992L0.343168 4.89941M7.63871 3.42245L7.63867 3.42245C7.4765 3.39883 7.33621 3.29709 7.26365 3.14986L7.63871 3.42245ZM7.63871 3.42245L10.3021 3.80945M7.63871 3.42245L10.3021 3.80945M0.343168 4.89941C0.167604 4.72831 0.105811 4.47827 0.181565 4.24463L0.343168 4.89941ZM10.3021 3.80945C10.5452 3.84484 10.7421 4.01077 10.818 4.24431L10.3021 3.80945ZM6.0729 0.736643L7.2636 3.14976L3.73621 3.15008L3.73626 3.14998L4.92718 0.736648L4.9272 0.736607C5.0356 0.516755 5.25477 0.380621 5.49993 0.380621C5.74534 0.380621 5.96449 0.516776 6.07289 0.736607L6.0729 0.736643Z" fill="#CAE1DC" stroke="#9CC8BD" stroke-width="0.3"/>
<g clip-path="url(#clip1)">
<path d="M10.7612 5.00661C10.9777 4.7956 11.0541 4.48591 10.9607 4.19802C10.8671 3.91014 10.6233 3.70463 10.3237 3.66102L7.66028 3.27401C7.54685 3.25749 7.44883 3.18635 7.39817 3.08348L6.20742 0.670269C6.07372 0.399124 5.80235 0.230621 5.49993 0.230621C5.19773 0.230621 4.92636 0.399124 4.79266 0.670269L3.60169 3.08371C3.55103 3.18657 3.45279 3.25771 3.33936 3.27423L0.675922 3.66124C0.376582 3.70463 0.13253 3.91036 0.0389172 4.19824C-0.0544749 4.48613 0.0219568 4.79582 0.238477 5.00683L2.16557 6.88525C2.24773 6.96542 2.28539 7.08084 2.26601 7.19362L1.81138 9.84604C1.77108 10.0795 1.83231 10.3066 1.98341 10.4857C2.21821 10.7648 2.62812 10.8498 2.95588 10.6775L5.33782 9.42511C5.43738 9.37291 5.56271 9.37335 5.66204 9.42511L8.0442 10.6775C8.16006 10.7386 8.28363 10.7694 8.41116 10.7694C8.64398 10.7694 8.86469 10.6659 9.01645 10.4857C9.16777 10.3066 9.22879 10.0791 9.18848 9.84604L8.73363 7.19362C8.71425 7.08062 8.75191 6.96542 8.83407 6.88525L10.7612 5.00661Z" fill="url(#paint0_linear)"/>
</g>
</g>
<defs>
<linearGradient id="paint0_linear" x1="2.99988" y1="3.05815e-05" x2="8.99988" y2="11" gradientUnits="userSpaceOnUse">
<stop stop-color="#153E35"/>
<stop offset="1" stop-color="#48746A"/>
</linearGradient>
<clipPath id="clip0">
<rect width="11" height="11" fill="white"/>
</clipPath>
<clipPath id="clip1">
<rect width="5.5" height="11" fill="white"/>
</clipPath>
</defs>
</svg>
