<svg width="11" height="11" viewBox="0 0 11 11" fill="none" xmlns="http://www.w3.org/2000/svg">
<g clip-path="url(#clip0)">
<path d="M10.7612 5.00683C10.9777 4.79581 11.0541 4.48612 10.9607 4.19824C10.8671 3.91035 10.6233 3.70484 10.3237 3.66123L7.66028 3.27423C7.54685 3.25771 7.44883 3.18656 7.39817 3.0837L6.20742 0.670483C6.07372 0.399337 5.80235 0.230835 5.49993 0.230835C5.19773 0.230835 4.92636 0.399337 4.79266 0.670483L3.60169 3.08392C3.55103 3.18678 3.45279 3.25793 3.33936 3.27445L0.675922 3.66145C0.376582 3.70484 0.13253 3.91057 0.0389172 4.19846C-0.0544749 4.48634 0.0219568 4.79603 0.238477 5.00705L2.16557 6.88546C2.24773 6.96564 2.28539 7.08106 2.26601 7.19383L1.81138 9.84625C1.77108 10.0797 1.83231 10.3068 1.98341 10.4859C2.21821 10.765 2.62812 10.85 2.95588 10.6778L5.33782 9.42533C5.43738 9.37313 5.56271 9.37357 5.66205 9.42533L8.0442 10.6778C8.16006 10.7388 8.28363 10.7696 8.41116 10.7696C8.64398 10.7696 8.86469 10.6661 9.01645 10.4859C9.16777 10.3068 9.22879 10.0793 9.18848 9.84625L8.73363 7.19383C8.71425 7.08083 8.75191 6.96564 8.83407 6.88546L10.7612 5.00683Z" fill="#9CC8BD"/>
<path d="M10.0314 5.07526C10.2179 4.89352 10.2837 4.62678 10.2033 4.37883C10.1227 4.13087 9.91267 3.95387 9.65466 3.91631L7.36066 3.58298C7.26295 3.56876 7.17853 3.50748 7.1349 3.41888L6.10931 1.3404C5.99416 1.10686 5.76043 0.961731 5.49996 0.961731C5.23967 0.961731 5.00595 1.10686 4.89079 1.3404L3.86502 3.41907C3.82139 3.50767 3.73677 3.56895 3.63907 3.58317L1.34507 3.9165C1.08725 3.95387 0.877052 4.13106 0.796425 4.37902C0.715987 4.62697 0.781817 4.89371 0.968304 5.07545L2.6281 6.69332C2.69886 6.76237 2.7313 6.86178 2.7146 6.95891L2.32304 9.24343C2.28832 9.44452 2.34106 9.64012 2.4712 9.79435C2.67344 10.0347 3.02649 10.1079 3.30878 9.95959L5.36033 8.88089C5.44608 8.83593 5.55403 8.8363 5.63959 8.88089L7.69133 9.95959C7.79111 10.0121 7.89754 10.0387 8.00739 10.0387C8.20791 10.0387 8.398 9.94954 8.52871 9.79435C8.65905 9.64012 8.7116 9.44414 8.67688 9.24343L8.28512 6.95891C8.26843 6.86159 8.30087 6.76237 8.37163 6.69332L10.0314 5.07526Z" fill="#CAE1DC"/>
</g>
<defs>
<clipPath id="clip0">
<rect width="11" height="11" fill="white" transform="translate(0 0.000213623)"/>
</clipPath>
</defs>
</svg>
